<mxfile host="app.diagrams.net" modified="2023-08-07T06:27:10.989Z" agent="Mozilla/5.0 (Windows NT 10.0; Win64; x64) AppleWebKit/537.36 (KHTML, like Gecko) Chrome/115.0.0.0 Safari/537.36" version="21.5.0" etag="Yu4BVcx5Wy2fwIxTrwa4" type="github">
  <diagram name="페이지-1" id="w5oJ_vQbQjaEfxl9kEC-">
    <mxGraphModel>
      <root>
        <mxCell id="0" />
        <mxCell id="1" parent="0" />
      </root>
    </mxGraphModel>
  </diagram>
</mxfile>
